<svg aria-hidden="true" style="position: absolute; width: 0; height: 0; overflow: hidden;" version="1.1" xmlns="http://www.w3.org/2000/svg" xmlns:xlink="http://www.w3.org/1999/xlink">
<defs>
<symbol id="icon-close" viewBox="0 0 43 32">
<path d="M10.248 4.010c-0.344 0.191-0.473 0.763-0.264 1.167 0.199 0.383 2.635 2.673 5.802 5.453 4.471 3.926 5.476 4.818 5.475 4.866-0 0.023-0.388 0.505-0.863 1.072-1.367 1.634-3.831 4.971-5.357 7.252-0.771 1.153-1.554 2.291-1.741 2.527s-0.375 0.499-0.42 0.583c-0.299 0.559 0.238 1.247 0.879 1.126 0.399-0.075 0.724-0.498 2.955-3.845 1.216-1.825 3.643-5.093 4.898-6.597 0.76-0.911 0.892-1.038 0.991-0.96 0.063 0.049 0.563 0.476 1.111 0.949 2.898 2.496 8.042 6.694 9.948 8.118 1.263 0.944 1.755 1.274 3.493 2.349 1.615 0.998 2.528 1.467 2.852 1.467 0.302 0 0.587-0.201 0.714-0.504 0.089-0.213 0.091-0.296 0.012-0.546-0.088-0.279-0.136-0.317-0.911-0.722-1.488-0.778-3.541-2.087-5.12-3.263-2.457-1.83-11.093-8.955-11.093-9.153 0-0.030 0.38-0.464 0.845-0.965s1.162-1.295 1.551-1.765c0.388-0.469 0.99-1.109 1.338-1.422s1.082-0.996 1.632-1.518c0.55-0.522 1.419-1.265 1.932-1.65 0.577-0.433 0.95-0.763 0.977-0.864 0.097-0.363 0.048-0.567-0.196-0.811-0.203-0.203-0.293-0.242-0.558-0.242-0.271 0-0.397 0.058-0.878 0.401-0.806 0.576-1.145 0.863-2.304 1.952-0.567 0.533-1.332 1.236-1.7 1.562s-0.988 0.979-1.378 1.45c-0.39 0.471-1.112 1.295-1.605 1.831-0.88 0.957-0.899 0.973-1.040 0.848-1.49-1.319-3.171-2.797-5.548-4.879-2.794-2.447-5.112-4.624-5.351-5.026-0.197-0.331-0.71-0.448-1.077-0.245z"></path>
</symbol>
<symbol id="icon-homepage" viewBox="0 0 43 32">
<path d="M28.402 12.931c-0.461 0.336-0.729 0.619-0.78 0.825-0.027 0.107-0.013 0.414 0.031 0.682s0.081 0.657 0.081 0.865c0 0.435 0.15 0.73 0.509 1.004 0.33 0.251 0.559 0.293 0.876 0.161 0.147-0.062 0.291-0.112 0.319-0.112s0.168 0.24 0.311 0.533c0.255 0.524 0.38 0.626 0.534 0.44 0.070-0.084-0.126-0.618-0.491-1.339-0.044-0.087-0.022-0.127 0.085-0.155 0.164-0.043 0.158-0.248-0.010-0.34-0.407-0.223-0.96-0.418-1.078-0.38-0.248 0.079-0.107 0.275 0.366 0.508l0.46 0.227-0.342 0.147c-0.466 0.2-0.59 0.186-0.871-0.095-0.196-0.196-0.242-0.297-0.242-0.53 0-0.159-0.036-0.529-0.079-0.823-0.099-0.669-0.064-0.8 0.298-1.099 0.407-0.336 0.497-0.322 0.706 0.107 0.282 0.578 0.719 1.164 0.867 1.164 0.246 0 0.223-0.209-0.067-0.625-0.156-0.223-0.367-0.572-0.469-0.775-0.19-0.377-0.415-0.592-0.62-0.592-0.064 0-0.241 0.091-0.393 0.202zM31.905 13.132c-0.026 0.026-0.047 0.939-0.047 2.029 0 1.767 0.013 1.986 0.116 2.026 0.064 0.024 0.184-0 0.267-0.055 0.099-0.065 0.358-0.1 0.755-0.1 0.567-0.001 0.606-0.011 0.627-0.156 0.019-0.134-0.021-0.162-0.297-0.203-0.175-0.026-0.481-0.037-0.68-0.023l-0.361 0.025 0-0.732 0-0.733 0.257-0.108c0.142-0.059 0.565-0.146 0.941-0.193 0.569-0.071 0.688-0.107 0.709-0.216 0.014-0.072-0.004-0.161-0.040-0.196-0.077-0.077-1.515 0.11-1.728 0.224-0.132 0.071-0.14 0.051-0.14-0.354v-0.429h0.561c0.559 0 0.671-0.050 0.596-0.267-0.021-0.061-0.208-0.089-0.594-0.089-0.54 0-0.563-0.007-0.563-0.164 0-0.249-0.237-0.429-0.379-0.287zM24.144 13.742c-0.020 0.088-0.068 0.368-0.108 0.622s-0.151 0.686-0.248 0.96c-0.147 0.415-0.177 0.63-0.178 1.289-0.001 0.591 0.024 0.812 0.098 0.874 0.193 0.16 0.374-0.182 0.572-1.078 0.024-0.108 0.082-0.196 0.131-0.197s0.488-0.076 0.976-0.168c0.869-0.162 0.895-0.163 1.147-0.037 0.281 0.141 0.335 0.225 0.449 0.697 0.082 0.341 0.267 0.52 0.399 0.388 0.112-0.112-0.033-0.839-0.213-1.068-0.096-0.122-0.123-0.219-0.082-0.298 0.112-0.219 0.012-0.295-0.392-0.295h-0.388l-0.655-0.617c-0.36-0.339-0.746-0.755-0.859-0.924-0.162-0.243-0.246-0.307-0.408-0.307-0.153 0-0.213 0.040-0.24 0.16zM7.35 13.759c-0.024 0.064-0.024 0.338 0 0.609s0.065 0.719 0.090 0.995c0.032 0.353 0.018 0.553-0.047 0.675-0.078 0.146-0.076 0.192 0.017 0.298 0.069 0.079 0.126 0.335 0.153 0.694 0.068 0.903 0.135 1.204 0.275 1.231 0.206 0.040 0.296-0.265 0.204-0.693-0.043-0.202-0.078-0.598-0.078-0.879l0.001-0.512 0.372-0.16c0.586-0.253 0.591-0.249 0.683 0.467 0.044 0.345 0.080 0.715 0.080 0.822s0.033 0.257 0.074 0.333c0.076 0.141 0.314 0.187 0.384 0.074 0.042-0.068-0.13-1.39-0.205-1.579-0.025-0.062-0.068-0.542-0.095-1.067-0.047-0.89-0.060-0.954-0.192-0.954-0.131 0-0.144 0.054-0.163 0.693-0.020 0.675-0.025 0.693-0.188 0.693-0.092 0-0.307 0.063-0.477 0.139l-0.31 0.139-0.054-0.406c-0.030-0.223-0.078-0.694-0.107-1.046-0.049-0.591-0.065-0.642-0.213-0.663-0.098-0.014-0.178 0.022-0.205 0.093zM10.311 13.973c-0.071 0.085-0.071 0.128 0 0.213 0.069 0.083 0.265 0.107 0.9 0.107 0.932 0 1.052 0.048 1.337 0.535 0.291 0.497 0.362 0.93 0.228 1.39-0.117 0.401-0.73 1.392-0.931 1.505-0.078 0.044-0.2 0.016-0.388-0.090-0.504-0.283-0.743-1.088-0.708-2.379l0.023-0.853h-0.178c-0.176 0-0.178 0.009-0.241 0.833-0.053 0.701-0.044 0.913 0.060 1.34 0.164 0.677 0.406 1.133 0.707 1.335 0.289 0.194 0.744 0.273 0.946 0.165 0.191-0.102 0.895-1.171 1.056-1.604 0.326-0.874-0.064-2.040-0.815-2.437-0.274-0.145-0.413-0.166-1.111-0.166-0.622 0-0.817 0.023-0.886 0.107zM20.599 13.914c-0.068 0.068-0.058 0.714 0.017 1.166 0.036 0.213 0.118 0.834 0.183 1.382 0.162 1.359 0.154 1.329 0.341 1.302 0.141-0.020 0.158-0.064 0.158-0.413 0-0.215-0.023-0.52-0.052-0.678-0.050-0.278-0.039-0.301 0.356-0.715 0.224-0.236 0.589-0.545 0.812-0.687 0.461-0.295 0.596-0.484 0.49-0.683-0.158-0.295-0.816-0.365-1.694-0.182-0.205 0.043-0.231 0.031-0.231-0.108 0-0.309-0.226-0.537-0.379-0.383zM17.14 14.006c-0.091 0.057-0.084 0.188 0.051 1.012 0.085 0.52 0.219 1.186 0.297 1.48s0.16 0.62 0.181 0.727c0.058 0.286 0.228 0.342 0.864 0.284 0.506-0.046 0.563-0.066 0.583-0.208 0.028-0.199-0.21-0.27-0.696-0.205l-0.346 0.046-0.112-0.491c-0.061-0.27-0.13-0.539-0.153-0.598-0.030-0.079 0.031-0.124 0.23-0.172 0.2-0.047 0.271-0.101 0.271-0.204 0-0.121-0.046-0.138-0.338-0.128-0.321 0.011-0.338 0.002-0.339-0.178-0.001-0.104-0.018-0.253-0.039-0.332-0.034-0.128 0.027-0.156 0.623-0.282 0.364-0.077 0.869-0.147 1.123-0.156s0.488-0.019 0.52-0.021c0.032-0.002 0.048-0.092 0.036-0.199-0.020-0.177-0.053-0.198-0.341-0.218-0.175-0.012-0.607 0.042-0.96 0.12-1.185 0.264-1.103 0.262-1.103 0.029 0-0.185-0.108-0.377-0.21-0.374-0.021 0.001-0.086 0.031-0.143 0.067zM13.527 14.163c-0.111 0.111-0.121 2.37-0.013 2.918 0.145 0.732 0.134 0.708 0.301 0.684 0.147-0.021 0.157-0.059 0.157-0.556 0-0.293-0.025-0.85-0.055-1.237l-0.056-0.704 0.304 0.249c0.365 0.298 0.848 0.554 1.048 0.554 0.080 0 0.268-0.111 0.418-0.247l0.273-0.247 0.084 0.371c0.134 0.593 0.456 1.576 0.532 1.627 0.039 0.026 0.116 0.029 0.172 0.008 0.129-0.050 0.104-0.214-0.223-1.426-0.208-0.774-0.247-1.019-0.212-1.353 0.034-0.33 0.020-0.427-0.076-0.507-0.164-0.136-0.315 0.021-0.374 0.388-0.045 0.278-0.396 0.873-0.55 0.932-0.151 0.058-0.567-0.168-0.958-0.521-0.327-0.294-0.391-0.393-0.427-0.662-0.044-0.329-0.181-0.436-0.346-0.271zM25.762 15.552c-0.154 0.045-1.134 0.234-1.211 0.234-0.066 0-0.089-0.205-0.089-0.79v-0.79l0.678 0.665c0.373 0.366 0.653 0.672 0.622 0.681zM22.471 14.749c0 0.016-0.156 0.125-0.346 0.242s-0.48 0.344-0.643 0.504c-0.163 0.16-0.308 0.291-0.321 0.291s-0.047-0.181-0.075-0.402c-0.028-0.221-0.066-0.443-0.085-0.493-0.024-0.063 0.059-0.1 0.273-0.119 0.471-0.042 1.197-0.056 1.197-0.023z"></path>
</symbol>
<symbol id="icon-menu" viewBox="0 0 43 32">
<path d="M10.56 5.239c-0.726 0.192-1.014 0.732-0.681 1.278 0.188 0.309 0.553 0.425 0.97 0.308 0.226-0.063 0.771-0.077 1.967-0.050 1.412 0.032 1.774 0.064 2.472 0.217 1.33 0.291 3.455 0.816 4.089 1.009 0.759 0.231 1.341 0.341 3.071 0.578 1.403 0.192 1.434 0.193 6.387 0.217 2.738 0.014 5.836-0 6.886-0.031l1.908-0.055 0.207-0.232c0.291-0.326 0.293-0.776 0.005-1.061l-0.203-0.2h-13.354l-1.683-0.232c-0.926-0.127-1.982-0.313-2.347-0.412-1.243-0.338-3.15-0.813-4.326-1.076l-1.173-0.262-2.027-0.017c-1.115-0.009-2.091-0-2.169 0.020zM23.822 14.372c-0.372 0.035-3.108 0.091-6.080 0.124-5.002 0.055-5.479 0.071-6.4 0.213-0.548 0.084-1.070 0.192-1.162 0.239-0.359 0.186-0.484 0.813-0.227 1.139 0.268 0.34 0.479 0.374 1.518 0.239 0.515-0.067 1.001-0.14 1.080-0.163s2.59-0.069 5.582-0.103c2.992-0.034 5.989-0.080 6.661-0.103 1.085-0.037 1.43-0.016 3.093 0.181 2.736 0.325 2.912 0.363 4.175 0.882 0.611 0.251 1.286 0.491 1.501 0.534 1.242 0.246 1.958 0.323 3.045 0.326l1.161 0.003 0.244-0.266c0.394-0.43 0.313-0.971-0.184-1.228-0.153-0.079-0.454-0.106-1.172-0.106-1.641 0-2.737-0.216-4.186-0.823-1.115-0.468-1.692-0.59-4.17-0.887-1.978-0.236-3.43-0.302-4.48-0.202zM21.44 22.331c-0.235 0.033-1.179 0.111-2.098 0.173-3.376 0.227-5.084 0.395-8.017 0.789-0.849 0.114-1.083 1.149-0.34 1.503 0.238 0.113 0.33 0.108 2.045-0.108 1.989-0.251 3.514-0.395 5.387-0.509 0.684-0.042 1.98-0.142 2.878-0.224 1.376-0.125 1.976-0.142 3.804-0.113 2.395 0.039 1.985-0.011 7.042 0.858 2.271 0.39 3.035 0.473 4.399 0.474 0.577 0.001 1.327 0.048 1.681 0.106 0.352 0.058 0.756 0.105 0.897 0.105 0.332 0 0.606-0.216 0.709-0.562 0.068-0.226 0.061-0.313-0.043-0.533-0.068-0.144-0.211-0.307-0.318-0.362-0.4-0.207-1.515-0.34-3.272-0.392-1.636-0.048-1.859-0.071-3.662-0.387-1.056-0.185-2.592-0.45-3.413-0.589l-1.493-0.253-2.88-0.019c-1.584-0.011-3.072 0.008-3.307 0.041z"></path>
</symbol>
<symbol id="icon-next" viewBox="0 0 43 32">
<path d="M14.495 4.187c-0.571 0.362-0.776 1.062-0.494 1.684 0.138 0.304 0.239 0.398 1.608 1.503 0.469 0.379 1.333 1.124 1.92 1.656 1.965 1.782 2.799 2.379 4.551 3.258 0.469 0.235 1.196 0.647 1.616 0.914 0.843 0.538 1.456 0.901 2.26 1.339 0.293 0.16 0.725 0.42 0.96 0.579 1.103 0.746 2.565 1.543 3.689 2.011 0.382 0.159 0.789 0.357 0.906 0.44l0.212 0.151-0.732 0.372c-1.029 0.523-2.119 1.195-3.379 2.085-0.595 0.42-1.753 1.237-2.572 1.815s-1.852 1.262-2.295 1.52c-0.443 0.258-1.222 0.71-1.73 1.004s-1.596 0.956-2.418 1.47c-1.633 1.022-2.305 1.404-2.825 1.61-0.826 0.325-1.223 0.798-1.224 1.455-0 0.525 0.273 0.959 0.754 1.199 0.204 0.102 0.458 0.185 0.565 0.185 0.422 0 2.023-0.759 3.227-1.529 1.322-0.846 2.708-1.693 3.84-2.346 1.922-1.11 2.267-1.328 3.698-2.343 3.598-2.552 5.030-3.485 5.932-3.861 0.497-0.208 2.487-1.212 2.696-1.361 0.283-0.202 0.521-0.709 0.521-1.11 0-0.519-0.237-0.914-0.736-1.226-0.235-0.147-0.567-0.384-0.738-0.528-0.454-0.381-1.901-1.222-2.541-1.476-0.963-0.382-2.039-0.971-3.464-1.894-0.372-0.241-0.82-0.511-0.996-0.6-0.39-0.197-1.297-0.735-2.204-1.306-0.372-0.234-1.205-0.702-1.852-1.040-1.655-0.864-2.109-1.193-3.872-2.801-0.801-0.731-2.117-1.838-3.061-2.576-0.677-0.529-1.257-0.608-1.822-0.25z"></path>
</symbol>
<symbol id="icon-projects" viewBox="0 0 43 32">
<path d="M29.28 9.296c-0.128 0.141-0.162 0.421-0.070 0.56 0.114 0.171 0.38 0.234 1.202 0.282l0.859 0.050 0.040 0.435c0.111 1.212 0.34 3.126 0.382 3.194 0.026 0.042 0.073 0.335 0.104 0.65s0.090 0.733 0.131 0.929c0.041 0.196 0.094 0.506 0.118 0.69 0.024 0.19 0.099 0.386 0.174 0.453 0.173 0.156 0.461 0.151 0.641-0.013 0.123-0.111 0.14-0.192 0.111-0.524-0.019-0.216-0.070-0.553-0.114-0.748s-0.095-0.516-0.114-0.711c-0.019-0.196-0.082-0.644-0.139-0.996s-0.139-0.992-0.181-1.422c-0.042-0.43-0.105-1.021-0.141-1.312s-0.049-0.545-0.031-0.564 0.275 0.023 0.569 0.093c0.559 0.132 0.831 0.111 1.045-0.082 0.165-0.149 0.158-0.464-0.014-0.62-0.208-0.188-1.349-0.333-3.382-0.43-0.999-0.047-1.075-0.042-1.191 0.087zM20.802 9.384c-0.092 0.102-0.114 0.202-0.081 0.373 0.025 0.129 0.059 0.394 0.077 0.589s0.065 0.692 0.106 1.102 0.099 1.41 0.128 2.22c0.060 1.641 0.085 1.724 0.529 1.705-0.696 0.019-0.213-0.001 0.269-0.020l1.115-0.035c1.001-0.039 1.169-0.063 1.298-0.183 0.187-0.174 0.189-0.446 0.006-0.63-0.129-0.129-0.237-0.142-1.163-0.142h-1.020l-0.046-0.651c-0.025-0.358-0.046-0.745-0.046-0.86v-0.209l0.668 0.050c0.621 0.047 0.678 0.039 0.818-0.1 0.196-0.196 0.19-0.401-0.017-0.609-0.133-0.133-0.277-0.178-0.702-0.218-0.294-0.028-0.599-0.030-0.676-0.005-0.153 0.049-0.165 0.001-0.273-1.096l-0.045-0.462 1.19 0.024c1.395 0.028 1.63-0.003 1.785-0.24 0.134-0.204 0.085-0.496-0.098-0.59-0.068-0.035-0.927-0.084-1.908-0.109-1.712-0.043-1.79-0.040-1.911 0.094zM35.921 9.562c-0.18 0.195-0.499 0.735-0.827 1.397-0.483 0.976-0.534 1.12-0.534 1.5 0 0.339 0.051 0.527 0.263 0.967 0.23 0.478 0.41 0.696 1.435 1.738 0.645 0.655 1.275 1.262 1.401 1.348 0.288 0.197 0.456 0.477 0.456 0.761v0.22h-0.404c-0.396 0-1.042-0.16-1.784-0.441-0.349-0.132-0.387-0.134-0.55-0.027-0.4 0.262-0.266 0.731 0.264 0.918 1.092 0.386 1.532 0.475 2.36 0.475 1.020 0 1.11-0.056 1.11-0.696 0-0.803-0.294-1.534-0.747-1.856-0.299-0.213-1.642-1.514-2.151-2.085-0.449-0.504-0.729-1.002-0.729-1.301 0-0.195 0.842-1.96 1.039-2.177 0.093-0.103 0.221-0.133 0.557-0.133h0.437l0.082 0.409c0.045 0.225 0.1 0.767 0.122 1.205 0.054 1.077 0.215 1.773 0.443 1.922 0.222 0.145 0.514 0.056 0.641-0.195 0.123-0.243 0.112-1.562-0.017-2.097-0.057-0.235-0.104-0.734-0.104-1.11-0.001-0.583-0.023-0.711-0.148-0.871l-0.147-0.187h-2.176l-0.293 0.318zM1.956 9.667c-0.078 0.032-0.31 0.081-0.516 0.109-0.662 0.091-0.654 0.071-0.692 1.744-0.018 0.802-0.066 1.65-0.105 1.884-0.101 0.598-0.090 1.229 0.028 1.64 0.055 0.193 0.123 0.525 0.151 0.738s0.106 0.517 0.173 0.676c0.068 0.158 0.146 0.469 0.173 0.69 0.032 0.256 0.099 0.446 0.186 0.524 0.193 0.174 0.497 0.155 0.656-0.041 0.113-0.139 0.126-0.235 0.085-0.631-0.027-0.257-0.108-0.601-0.182-0.765s-0.134-0.389-0.134-0.501-0.048-0.387-0.107-0.612c-0.131-0.503-0.132-0.57-0.011-0.523 0.053 0.020 0.224-0.021 0.38-0.091s0.729-0.263 1.273-0.43c1.105-0.338 1.328-0.45 1.685-0.844 0.349-0.386 0.434-0.698 0.38-1.388-0.133-1.698-0.297-1.934-1.489-2.144-0.625-0.11-1.701-0.13-1.933-0.036zM13.227 9.647c-0.572 0.226-0.418 0.963 0.197 0.942 0.308-0.011 1.136 0.116 1.529 0.234 0.434 0.13 1.142 0.83 1.407 1.392 0.213 0.451 0.223 0.51 0.195 1.153-0.037 0.854-0.135 1.046-0.862 1.694-0.306 0.273-0.604 0.563-0.662 0.646-0.127 0.181-0.543 0.204-0.913 0.049-0.354-0.148-0.67-0.811-0.851-1.783-0.167-0.899-0.5-2.098-0.803-2.894-0.14-0.368-0.223-0.491-0.367-0.541-0.241-0.084-0.486 0.009-0.583 0.222-0.084 0.183-0.081 0.197 0.291 1.293 0.219 0.645 0.384 1.307 0.507 2.027 0.081 0.478 0.289 1.102 0.558 1.674 0.272 0.58 0.793 0.937 1.549 1.062 0.647 0.107 0.776 0.037 1.816-0.981 0.919-0.899 0.964-0.957 1.12-1.435 0.12-0.369 0.164-0.673 0.167-1.173 0.004-0.59-0.021-0.739-0.201-1.173-0.113-0.274-0.318-0.654-0.456-0.844-0.376-0.521-1.096-1.082-1.605-1.25-0.633-0.209-1.829-0.392-2.033-0.311zM19.012 9.924c-0.155 0.155-0.175 0.221-0.133 0.444 0.027 0.144 0.065 1.801 0.084 3.681l0.035 3.419-0.176 0.606c-0.254 0.876-0.298 0.933-0.689 0.888-0.466-0.053-1.124-0.318-1.368-0.552-0.281-0.268-0.45-0.313-0.66-0.176-0.226 0.148-0.298 0.44-0.166 0.676 0.232 0.415 1.618 1.002 2.414 1.023 0.691 0.018 0.961-0.287 1.34-1.508l0.229-0.739-0.028-3.635c-0.030-3.784-0.054-4.087-0.336-4.238-0.212-0.114-0.35-0.086-0.545 0.11zM6.455 9.935c-0.234 0.036-0.5 0.349-0.444 0.524 0.022 0.069 0.052 0.84 0.067 1.713 0.034 1.964 0.195 4.227 0.31 4.342 0.046 0.046 0.084 0.157 0.084 0.247 0 0.216 0.24 0.448 0.462 0.448 0.399 0 0.595-0.531 0.363-0.981-0.096-0.186-0.229-2.399-0.275-4.583l-0.018-0.836 0.889 0.001c0.489 0.001 0.932 0.028 0.984 0.061 0.138 0.087 0.035 0.684-0.183 1.060-0.097 0.167-0.363 0.447-0.59 0.623-0.494 0.38-0.708 0.637-0.708 0.848 0 0.19 0.278 0.465 0.47 0.465 0.251 0 1.275 1.106 1.702 1.839 0.213 0.366 0.388 0.689 0.388 0.718 0 0.117 0.292 0.305 0.473 0.305 0.22 0 0.451-0.239 0.451-0.467 0-0.321-0.874-1.686-1.513-2.363l-0.624-0.662 0.251-0.191c0.754-0.575 1.238-2.419 0.76-2.897-0.089-0.089-0.294-0.167-0.523-0.2-0.39-0.055-2.433-0.065-2.775-0.013zM26.273 10.827c-0.73 0.745-1.144 1.336-1.236 1.763-0.042 0.198-0.077 0.879-0.077 1.515 0 1.122 0.005 1.164 0.183 1.437 0.199 0.304 0.883 0.831 1.343 1.033 0.774 0.34 1.626 0.317 1.717-0.046 0.114-0.454-0.112-0.638-0.848-0.689-0.358-0.025-0.482-0.077-0.924-0.386l-0.511-0.357 0.015-1.194c0.018-1.375 0.020-1.381 0.826-2.222l0.426-0.444h0.505c0.278 0 0.605 0.029 0.727 0.064 0.451 0.129 0.814-0.289 0.571-0.659-0.162-0.247-0.515-0.328-1.432-0.329l-0.78-0-0.505 0.516zM3.716 10.623c0.265 0.051 0.504 0.117 0.533 0.145 0.067 0.067 0.217 0.917 0.225 1.271 0.007 0.319-0.15 0.654-0.358 0.765-0.082 0.044-0.594 0.22-1.138 0.392s-1.090 0.364-1.212 0.428l-0.223 0.115 0.046-0.274c0.025-0.151 0.063-0.642 0.084-1.092s0.056-1.018 0.077-1.262c0.037-0.425 0.048-0.447 0.264-0.509 0.332-0.096 1.152-0.086 1.702 0.020z"></path>
</symbol>
<symbol id="icon-recomendation" viewBox="0 0 43 32">
<path d="M22.904 10.831c-0.111 0.247-0.225 0.525-0.255 0.618s-0.23 0.572-0.445 1.063-0.465 1.096-0.555 1.345c-0.090 0.249-0.177 0.465-0.194 0.482-0.078 0.078-0.277-0.090-0.477-0.401-0.121-0.189-0.269-0.384-0.329-0.433-0.342-0.284-0.483-1.082-0.306-1.722 0.091-0.328-0.009-0.493-0.278-0.461-0.126 0.015-0.199 0.084-0.248 0.235-0.039 0.117-0.129 0.255-0.201 0.306-0.119 0.085-0.131 0.208-0.127 1.387 0.004 1.328 0.064 1.71 0.292 1.852 0.236 0.147 0.344-0.061 0.344-0.661 0-0.302 0.021-0.57 0.047-0.595s0.152 0.105 0.281 0.29c0.449 0.647 0.467 0.662 0.888 0.705 0.373 0.038 0.399 0.030 0.525-0.163 0.073-0.112 0.204-0.396 0.289-0.631 0.157-0.43 1.086-2.646 1.289-3.076 0.15-0.317 0.076-0.587-0.16-0.587-0.152 0-0.211 0.070-0.381 0.448zM34.956 10.636c-0.249 0.249-0.023 0.457 0.494 0.457 0.355 0 0.406 0.023 0.717 0.316 0.275 0.26 0.343 0.375 0.385 0.653 0.080 0.524-0.038 1.331-0.25 1.718-0.325 0.593-0.913 0.863-1.179 0.542-0.139-0.168-0.423-1.456-0.468-2.126-0.024-0.352-0.072-0.696-0.107-0.764-0.079-0.153-0.295-0.162-0.416-0.016-0.139 0.167-0.038 1.206 0.213 2.202 0.188 0.745 0.246 0.882 0.457 1.079 0.295 0.275 0.801 0.38 1.097 0.228 0.372-0.192 0.84-0.733 0.997-1.153 0.193-0.516 0.269-1.454 0.16-1.965-0.069-0.322-0.142-0.44-0.444-0.723-0.199-0.186-0.467-0.387-0.595-0.448-0.309-0.146-0.914-0.146-1.061 0.001zM30.862 10.922c-0.355 0.115-0.865 0.263-1.564 0.453-0.351 0.096-0.467 0.16-0.483 0.266-0.037 0.245 0.164 0.34 0.552 0.261l0.343-0.070 0.027 1.319c0.030 1.421 0.097 1.726 0.392 1.768 0.219 0.031 0.313-0.179 0.232-0.525-0.036-0.154-0.066-0.83-0.067-1.503l-0.002-1.223 0.409-0.118c0.707-0.204 0.871-0.295 0.871-0.485 0-0.273-0.194-0.312-0.711-0.145zM32.085 10.894c-0.113 0.113-0.108 0.314 0.030 1.2 0.063 0.408 0.135 1.221 0.16 1.808l0.045 1.067h0.427l0.020-0.893c0.023-1.052-0.203-3.11-0.353-3.205-0.131-0.083-0.229-0.076-0.329 0.024zM0.293 10.977c-0.060 0.072-0.059 0.235 0.003 0.637 0.082 0.526 0.080 0.543-0.080 0.672-0.21 0.17-0.148 0.444 0.101 0.444 0.147 0 0.179 0.058 0.284 0.516 0.066 0.284 0.165 0.977 0.22 1.542 0.134 1.366 0.232 1.841 0.395 1.929 0.1 0.053 0.165 0.036 0.275-0.074 0.171-0.171 0.171-0.164 0.043-0.689-0.127-0.524-0.205-1.446-0.123-1.446 0.219 0 1.096 0.596 1.501 1.020 0.255 0.267 0.522 0.517 0.592 0.555 0.38 0.205 0.577-0.296 0.216-0.551-0.104-0.074-0.384-0.327-0.622-0.563s-0.616-0.524-0.841-0.64c-0.225-0.116-0.409-0.232-0.409-0.256s0.088-0.082 0.195-0.128c0.384-0.164 0.595-0.395 0.636-0.697 0.052-0.39-0.116-0.553-0.639-0.619-0.218-0.027-0.434-0.095-0.48-0.152s-0.189-0.102-0.317-0.102c-0.27 0-0.276-0.011-0.393-0.739-0.087-0.539-0.197-0.754-0.384-0.754-0.051 0-0.129 0.044-0.173 0.097zM3.247 11.425c-0.1 0.1-0.047 0.273 0.345 1.126 0.054 0.117 0.135 0.357 0.18 0.533s0.106 0.352 0.137 0.391c0.030 0.039 0.072 0.167 0.094 0.284 0.105 0.586 0.427 1.645 0.521 1.717 0.067 0.052 0.263 0.068 0.529 0.044 0.403-0.037 1.174 0.075 1.435 0.207 0.183 0.093 0.44-0.18 0.342-0.363-0.084-0.157-1.138-0.431-1.656-0.431h-0.321l-0.151-0.622c-0.083-0.342-0.151-0.648-0.151-0.68s0.243-0.049 0.541-0.038c0.459 0.017 0.555 0 0.637-0.112 0.133-0.182 0.020-0.367-0.26-0.423-0.124-0.025-0.445-0.045-0.714-0.045-0.417 0-0.489-0.018-0.492-0.124-0.002-0.068-0.046-0.244-0.098-0.391l-0.095-0.267h0.627c0.475 0 0.654-0.027 0.738-0.112 0.14-0.14 0.14-0.205 0-0.345-0.088-0.088-0.276-0.112-0.872-0.112-0.683 0-0.769-0.014-0.849-0.142-0.085-0.136-0.368-0.194-0.467-0.095zM23.641 11.454c-0.026 0.042-0.076 0.897-0.111 1.899-0.069 1.957-0.052 2.080 0.276 1.976 0.204-0.065 0.225-0.201 0.276-1.766 0.051-1.558 0.006-1.442 0.486-1.259 0.202 0.077 0.681 0.563 0.879 0.89 0.137 0.227 0.162 0.351 0.139 0.677-0.025 0.349-0.068 0.444-0.343 0.763-0.459 0.533-0.945 0.877-1.372 0.973-0.286 0.064-0.374 0.116-0.39 0.231-0.024 0.16 0.218 0.375 0.422 0.375 0.285 0 0.913-0.421 1.489-0.998 0.488-0.489 0.628-0.677 0.703-0.946 0.133-0.475 0.057-0.983-0.207-1.381-0.119-0.179-0.216-0.347-0.216-0.372 0-0.12-0.774-0.656-1.142-0.79-0.227-0.083-0.43-0.195-0.451-0.249-0.045-0.116-0.368-0.133-0.437-0.023zM41.546 11.46c-0.048 0.048-0.088 0.125-0.088 0.171 0 0.201-0.444 1.129-0.773 1.617-0.466 0.691-1.224 1.568-1.29 1.494-0.057-0.063-0.572-1.203-0.797-1.764-0.078-0.196-0.163-0.58-0.188-0.853l-0.046-0.498h-0.248c-0.226 0-0.252 0.021-0.296 0.249-0.093 0.477-0.287 1.098-0.433 1.384-0.081 0.158-0.22 0.511-0.309 0.783-0.177 0.538-0.145 0.677 0.152 0.677 0.135 0 0.191-0.073 0.314-0.409 0.22-0.602 0.46-1.153 0.5-1.153 0.020 0 0.204 0.376 0.41 0.834 0.311 0.692 0.375 0.902 0.373 1.235-0.003 0.703 0.318 0.885 0.663 0.378 0.088-0.129 0.414-0.526 0.725-0.883s0.745-0.92 0.966-1.252c0.482-0.727 0.909-1.763 0.798-1.939-0.093-0.149-0.318-0.185-0.433-0.070zM26.92 11.609c-0.064 0.211-0.178 0.986-0.222 1.511-0.026 0.313-0.108 0.744-0.182 0.958-0.239 0.69-0.155 1.567 0.15 1.567 0.188 0 0.284-0.244 0.284-0.719v-0.495l1.516 0.040 0.166 0.462c0.217 0.606 0.436 0.774 0.622 0.479 0.147-0.233-0.571-1.865-1.155-2.627-0.316-0.412-0.424-0.58-0.708-1.097-0.1-0.182-0.424-0.237-0.472-0.080zM15.021 12.146c-0.284 0.301-0.596 0.644-0.694 0.761l-0.177 0.213-0.29-0.336c-0.159-0.185-0.36-0.44-0.446-0.567-0.218-0.323-0.493-0.472-0.644-0.347-0.128 0.106-0.154 0.6-0.047 0.882 0.037 0.096 0.089 0.57 0.116 1.053s0.074 0.911 0.105 0.95c0.030 0.039 0.066 0.148 0.080 0.242 0.036 0.247 0.239 0.357 0.387 0.209 0.103-0.103 0.107-0.204 0.037-0.927-0.044-0.446-0.079-0.905-0.078-1.020l0.001-0.21 0.23 0.265c0.387 0.445 0.775 0.499 0.999 0.139 0.065-0.105 0.23-0.319 0.367-0.475l0.248-0.284 0.004 1.316c0.005 1.671 0.128 2.27 0.47 2.274 0.044 0.001 0.12-0.047 0.169-0.106 0.072-0.087 0.067-0.2-0.027-0.587-0.165-0.681-0.17-3.297-0.006-3.433 0.067-0.056 0.102-0.177 0.089-0.311-0.017-0.176-0.056-0.222-0.199-0.234-0.138-0.011-0.292 0.107-0.694 0.533zM16.62 11.858c-0.155 0.388-0.043 3.102 0.137 3.3 0.154 0.17 0.343 0.167 0.506-0.008 0.11-0.118 0.242-0.143 0.874-0.16l0.744-0.020v-0.427l-0.815-0.020c-0.542-0.014-0.833-0.049-0.87-0.107-0.030-0.048-0.055-0.29-0.056-0.538-0.001-0.376 0.017-0.445 0.107-0.41 0.060 0.023 0.358 0.062 0.663 0.088 0.637 0.053 0.864-0.023 0.864-0.29 0-0.215-0.085-0.24-0.935-0.266l-0.686-0.021-0.042-0.249c-0.023-0.137-0.042-0.336-0.043-0.442l-0.001-0.193 0.899-0.020c0.735-0.016 0.912-0.041 0.971-0.135 0.040-0.063 0.052-0.167 0.028-0.231-0.039-0.101-0.192-0.116-1.141-0.116h-1.097l-0.107 0.267zM10.247 12.007c-0.055 0.038-0.097 0.165-0.094 0.283 0.004 0.125-0.036 0.231-0.096 0.253-0.064 0.025-0.101 0.139-0.1 0.308 0.002 0.445 0.18 1.391 0.307 1.634 0.065 0.125 0.119 0.298 0.119 0.385 0 0.2 0.377 0.791 0.653 1.023 0.147 0.123 0.297 0.178 0.489 0.178 0.243 0 0.3-0.034 0.454-0.267 0.097-0.147 0.221-0.461 0.276-0.699s0.133-0.494 0.173-0.569c0.040-0.075 0.095-0.345 0.122-0.599 0.044-0.411 0.029-0.502-0.135-0.828-0.101-0.201-0.184-0.398-0.184-0.438s-0.156-0.202-0.346-0.362c-0.33-0.276-0.374-0.292-0.942-0.331-0.34-0.023-0.639-0.011-0.696 0.028zM8.034 12.34c-0.332 0.179-0.556 0.468-0.856 1.1-0.221 0.466-0.169 1.465 0.104 2.005 0.283 0.561 0.524 0.721 1.101 0.727 0.39 0.004 0.555-0.034 0.952-0.223 0.509-0.241 0.625-0.379 0.473-0.561-0.113-0.136-0.307-0.106-0.883 0.136-0.872 0.367-1.314-0.050-1.315-1.241-0-0.259 0.046-0.583 0.104-0.72 0.126-0.303 0.445-0.693 0.565-0.693 0.048 0 0.164-0.081 0.258-0.181 0.134-0.142 0.154-0.207 0.094-0.302-0.096-0.153-0.363-0.174-0.597-0.048zM11.544 12.701c0.102 0.074 0.186 0.162 0.187 0.195s0.078 0.212 0.171 0.396c0.188 0.375 0.172 0.771-0.049 1.193-0.066 0.125-0.119 0.308-0.119 0.407 0 0.196-0.208 0.681-0.293 0.681-0.070 0-0.489-0.623-0.493-0.732-0.002-0.047-0.052-0.213-0.112-0.37-0.165-0.432-0.237-0.726-0.34-1.378l-0.094-0.595 0.478 0.034c0.313 0.022 0.542 0.081 0.663 0.169zM28.002 13.6l0.153 0.267h-1.003l0.038-0.267c0.021-0.147 0.058-0.42 0.082-0.608l0.044-0.341 0.266 0.341c0.147 0.188 0.335 0.461 0.419 0.608zM1.32 12.971c0.079 0.055 0.295 0.123 0.481 0.151 0.333 0.050 0.337 0.053 0.211 0.194-0.134 0.15-0.514 0.337-0.686 0.337-0.061 0-0.12-0.106-0.148-0.267-0.026-0.147-0.064-0.323-0.084-0.391-0.044-0.15 0.034-0.159 0.226-0.024z"></path>
</symbol>
<symbol id="icon-techSkills" viewBox="0 0 43 32">
<path d="M37.641 9.055c0.181-0.15 0.271-0.166 0.909-0.166 0.433 0 0.797 0.037 0.937 0.096 0.303 0.127 0.691 0.459 0.691 0.591 0 0.058 0.043 0.148 0.096 0.201 0.060 0.060 0.113 0.362 0.142 0.805 0.097 1.482-0.356 2.387-0.926 1.851-0.157-0.147-0.165-0.204-0.172-1.191-0.010-1.414 0.001-1.387-0.557-1.413-0.397-0.019-0.513 0.009-0.957 0.229-0.452 0.224-0.524 0.288-0.676 0.608-0.156 0.33-0.163 0.39-0.088 0.763 0.045 0.223 0.148 0.503 0.23 0.622 0.196 0.285 1.628 1.378 1.818 1.387 0.046 0.002 0.174 0.080 0.285 0.174s0.314 0.216 0.451 0.274 0.475 0.346 0.752 0.642c0.418 0.448 0.6 0.73 1.084 1.681 0.698 1.372 0.741 1.629 0.333 1.987-0.136 0.12-0.618 0.402-1.069 0.626-0.791 0.393-0.846 0.41-1.478 0.438-0.743 0.033-1.097-0.068-1.294-0.369-0.144-0.22-0.089-0.433 0.151-0.59 0.151-0.099 0.214-0.102 0.45-0.025 0.499 0.165 1.030 0.069 1.8-0.322 0.381-0.194 0.692-0.384 0.693-0.423s-0.213-0.487-0.474-0.996c-0.521-1.015-1.053-1.685-1.498-1.884-0.147-0.066-0.312-0.173-0.365-0.238s-0.129-0.118-0.167-0.118c-0.146 0-0.972-0.556-1.62-1.092-0.638-0.527-0.685-0.585-0.841-1.031-0.091-0.26-0.182-0.665-0.204-0.9-0.034-0.373-0.009-0.497 0.195-0.984 0.247-0.588 0.473-0.828 0.927-0.983 0.133-0.046 0.333-0.158 0.444-0.249zM12.603 9.603c-0.276 0.11-0.311 0.347-0.229 1.553 0.041 0.611 0.092 2.183 0.113 3.493s0.051 2.452 0.069 2.537c0.076 0.375 0.532 0.508 0.785 0.229 0.121-0.133 0.138-0.29 0.159-1.449l0.023-1.299 0.176-0.080c0.336-0.153 0.823-0.098 1.19 0.134 0.451 0.286 0.553 0.547 0.611 1.555 0.042 0.73 0.062 0.822 0.21 0.942 0.209 0.169 0.374 0.168 0.585-0.003 0.157-0.127 0.168-0.184 0.167-0.871-0.002-1.339-0.389-2.109-1.279-2.55-0.301-0.149-0.456-0.176-1.016-0.176-0.604 0-0.663-0.012-0.688-0.142-0.015-0.078-0.071-0.934-0.124-1.902-0.101-1.844-0.116-1.908-0.447-1.996-0.078-0.021-0.215-0.009-0.303 0.026zM33.367 9.759c-0.089 0.043-0.181 0.156-0.205 0.252-0.088 0.352 0.159 3.697 0.367 4.959 0.058 0.352 0.106 0.928 0.107 1.28 0.001 0.715 0.086 0.96 0.367 1.059 0.144 0.051 0.254 0.030 0.481-0.088 0.37-0.193 0.531-0.192 1.309 0.003 0.569 0.143 0.645 0.148 0.818 0.052 0.235-0.131 0.303-0.553 0.114-0.71-0.174-0.145-1.289-0.419-1.71-0.421l-0.363-0.002-0.046-0.409c-0.026-0.225-0.077-0.585-0.115-0.8-0.128-0.728-0.281-2.232-0.366-3.612-0.082-1.329-0.091-1.379-0.26-1.512-0.197-0.155-0.264-0.162-0.495-0.050zM22.731 10.228c-0.166 0.184-0.147 0.389 0.103 1.079 0.12 0.332 0.324 0.892 0.451 1.244 0.464 1.279 0.529 1.504 0.607 2.134 0.121 0.978 0.395 2.156 0.537 2.313 0.16 0.177 0.473 0.179 0.631 0.004 0.151-0.166 0.154-0.388 0.017-1.073-0.059-0.293-0.099-0.54-0.089-0.55s0.166 0.184 0.347 0.431c0.49 0.668 1.251 1.464 1.446 1.513 0.277 0.070 0.526-0.14 0.526-0.443 0-0.212-0.065-0.32-0.394-0.656-0.217-0.221-0.625-0.719-0.907-1.106-3.608-5.121-3.91-5.531-4.213-5.941l3.293 4.681-0.407-0.557 0.351-0.553c0.465-0.734 0.783-1.306 0.783-1.41 0-0.046-0.066-0.169-0.147-0.272-0.261-0.332-0.625-0.206-0.898 0.31-0.373 0.705-0.661 0.99-0.661 0.654 0-0.066-0.092-0.315-0.205-0.554s-0.257-0.614-0.321-0.834c-0.068-0.235-0.173-0.431-0.253-0.473-0.208-0.112-0.466-0.087-0.597 0.057zM29.786 10.25c-0.145 0.145-0.15 0.195-0.106 1.084 0.025 0.513 0.076 1.237 0.113 1.608s0.101 1.46 0.143 2.418c0.096 2.215-0.053 2.030 1.623 2.018 1.070-0.008 1.246-0.025 1.368-0.135 0.194-0.176 0.175-0.435-0.048-0.641-0.179-0.166-0.233-0.174-1.067-0.174-0.483 0-0.881-0.008-0.884-0.018s-0.034-0.674-0.069-1.476c-0.035-0.802-0.096-1.794-0.136-2.204s-0.093-1.115-0.118-1.564c-0.051-0.902-0.123-1.067-0.465-1.067-0.112 0-0.27 0.068-0.354 0.152zM4.444 10.491c-0.039 0.014-0.396 0.057-0.794 0.095-0.779 0.074-1.188 0.176-2.21 0.551-0.361 0.132-0.716 0.241-0.789 0.241-0.312 0-0.488 0.51-0.256 0.741 0.203 0.203 0.449 0.21 0.99 0.026l0.518-0.176 0.031 1.856c0.026 1.531 0.052 1.904 0.15 2.131 0.066 0.151 0.119 0.383 0.119 0.516 0 0.287 0.209 0.525 0.462 0.525 0.098 0 0.242-0.064 0.32-0.142 0.18-0.18 0.192-0.721 0.024-1.111-0.095-0.22-0.124-0.577-0.146-1.769-0.015-0.821-0.002-1.685 0.030-1.92l0.057-0.427 0.32-0.049c0.176-0.027 0.703-0.096 1.171-0.154 0.718-0.088 0.871-0.129 0.978-0.261 0.156-0.192 0.16-0.345 0.016-0.551-0.093-0.133-0.174-0.157-0.516-0.152-0.223 0.003-0.437 0.017-0.476 0.032zM20.043 10.881c-0.064 0.038-0.188 0.204-0.274 0.37s-0.238 0.398-0.337 0.516c-0.512 0.609-0.616 1.474-0.284 2.367 0.259 0.697 0.343 0.81 0.932 1.249 0.52 0.388 1.048 0.687 1.77 1 0.506 0.22 0.553 0.398 0.107 0.4-0.166 0.001-0.638 0.053-1.049 0.116s-0.819 0.111-0.907 0.107c-0.088-0.004-0.276-0.015-0.418-0.024-0.196-0.012-0.29 0.024-0.391 0.148-0.193 0.238-0.165 0.415 0.109 0.689 0.262 0.262 0.558 0.314 0.945 0.165 0.306-0.118 0.966-0.212 1.9-0.271 0.834-0.053 0.849-0.057 1.049-0.28 0.244-0.273 0.255-0.495 0.049-0.931-0.313-0.659-0.31-0.657-1.766-1.346-1.055-0.5-1.497-1.042-1.552-1.907-0.023-0.369-0.003-0.474 0.122-0.633 0.083-0.105 0.151-0.227 0.153-0.27 0.003-0.106 0.337-0.51 0.383-0.464 0.020 0.020 0.065 0.348 0.1 0.728 0.071 0.767 0.179 0.972 0.515 0.972 0.13 0 0.249-0.066 0.35-0.195 0.139-0.177 0.151-0.264 0.13-0.966-0.019-0.605-0.048-0.789-0.137-0.854-0.062-0.046-0.166-0.185-0.231-0.31s-0.189-0.277-0.276-0.338c-0.176-0.124-0.803-0.148-0.99-0.038zM28.021 10.963c-0.163 0.152-0.165 0.172-0.117 1.084 0.027 0.512 0.078 1.154 0.115 1.428s0.068 0.722 0.069 0.996c0.004 0.604 0.152 1.271 0.323 1.46 0.342 0.378 0.926-0.060 0.737-0.554-0.041-0.107-0.105-0.643-0.144-1.19-0.183-2.625-0.235-3.073-0.376-3.228-0.174-0.192-0.399-0.19-0.608 0.005zM9.747 11.494c-0.081 0.103-0.147 0.241-0.147 0.306s-0.030 0.149-0.067 0.186c-0.037 0.037-0.099 0.196-0.137 0.352-0.133 0.566-0.193 0.792-0.254 1.018l0.080-0.342c-0.060 0.225-0.123 0.907-0.147 1.608-0.047 1.326-0.011 1.538 0.359 2.124 0.321 0.507 0.589 0.632 1.425 0.665 0.701 0.028 0.73 0.023 0.907-0.154 0.219-0.219 0.232-0.423 0.040-0.616-0.119-0.119-0.237-0.142-0.733-0.142-0.628 0-0.718-0.037-0.931-0.38-0.112-0.181-0.12-0.334-0.079-1.493 0.045-1.254 0.137-1.837 0.356-2.252 0.297-0.563 0.165-1.067-0.281-1.067-0.177 0-0.282 0.051-0.389 0.187zM5.284 12.184c-0.124 0.158-0.147 0.333-0.188 1.476-0.070 1.942-0.058 3.305 0.032 3.502 0.113 0.248 0.36 0.344 0.637 0.248 0.268-0.093 1.019-0.033 1.524 0.122 0.385 0.118 0.602 0.096 0.777-0.079 0.149-0.149 0.142-0.481-0.013-0.611-0.171-0.145-0.95-0.346-1.529-0.395l-0.48-0.040v-1.56l0.196 0.049c0.108 0.027 0.407 0.066 0.666 0.087 0.425 0.034 0.485 0.022 0.622-0.125 0.189-0.203 0.192-0.351 0.012-0.58-0.106-0.135-0.232-0.189-0.516-0.223-0.206-0.025-0.511-0.064-0.677-0.088l-0.302-0.043v-0.839l0.48 0.043c0.427 0.038 0.498 0.026 0.64-0.109 0.182-0.173 0.206-0.412 0.062-0.609-0.073-0.099-0.263-0.158-0.729-0.225-0.347-0.050-0.73-0.11-0.851-0.134-0.181-0.036-0.246-0.012-0.362 0.135z"></path>
</symbol>
<symbol id="icon-education" viewBox="0 0 43 32">
<path d="M39.127 13.168c-0.049 0.049-0.087 0.268-0.087 0.496 0 0.225-0.032 0.428-0.072 0.453s-0.137 0.173-0.217 0.329c-0.080 0.156-0.311 0.466-0.515 0.688s-0.511 0.62-0.685 0.884-0.353 0.48-0.399 0.48c-0.046 0-0.168-0.12-0.272-0.267s-0.395-0.443-0.648-0.658c-0.253-0.215-0.46-0.442-0.461-0.505-0.005-0.282-0.161-0.562-0.311-0.561-0.235 0.002-0.35 0.106-0.444 0.403-0.047 0.15-0.238 0.656-0.425 1.125-0.366 0.923-0.434 1.331-0.227 1.372 0.136 0.027 0.129 0.039 0.515-0.981 0.443-1.171 0.478-1.239 0.566-1.084 0.042 0.074 0.268 0.306 0.503 0.517 0.47 0.421 0.676 0.656 0.676 0.772 0 0.126 0.42 0.303 0.662 0.279 0.169-0.016 0.254-0.076 0.334-0.235 0.171-0.338 0.568-0.889 0.956-1.326 0.197-0.222 0.479-0.602 0.628-0.844 0.251-0.41 0.268-0.475 0.249-0.913-0.021-0.486-0.126-0.623-0.325-0.425zM31.174 13.259c-0.077 0.2 0.11 0.323 0.497 0.325 0.741 0.004 1.412 0.132 1.684 0.32 0.675 0.468 0.54 1.246-0.407 2.356-0.471 0.552-0.688 0.664-1.279 0.664-0.465 0-0.506-0.014-0.721-0.235-0.213-0.22-0.227-0.267-0.227-0.749 0-0.506 0.126-0.968 0.305-1.114 0.169-0.139 0.478-0.597 0.478-0.709 0-0.232-0.229-0.212-0.44 0.039-0.113 0.134-0.265 0.307-0.34 0.385s-0.204 0.318-0.288 0.533c-0.124 0.318-0.149 0.506-0.129 1 0.024 0.607 0.025 0.61 0.3 0.853 0.462 0.409 0.574 0.446 1.203 0.393 0.672-0.056 0.996-0.243 1.507-0.871 0.562-0.69 0.889-1.316 0.889-1.703 0-0.65-0.398-1.155-1.102-1.401-0.156-0.055-0.645-0.122-1.085-0.149-0.692-0.043-0.807-0.035-0.843 0.062zM15.434 13.435c-0.040 0.076-0.074 0.489-0.074 0.92v0.782l-0.213 0.152c-0.117 0.083-0.345 0.373-0.506 0.645s-0.412 0.628-0.558 0.792l-0.265 0.299-0.124-0.189c-0.146-0.223-0.301-0.787-0.4-1.456-0.039-0.265-0.111-0.754-0.16-1.086-0.084-0.573-0.098-0.604-0.265-0.604-0.169 0-0.176 0.018-0.168 0.419 0.005 0.231 0.043 0.583 0.086 0.782s0.132 0.667 0.199 1.038c0.142 0.783 0.513 1.564 0.743 1.564 0.222 0 0.683-0.476 1.153-1.19l0.441-0.669 0.045 0.812c0.041 0.744 0.129 1.12 0.26 1.117 0.028-0.001 0.095-0.029 0.149-0.063 0.081-0.051 0.084-0.178 0.018-0.74-0.112-0.95-0.104-1.435 0.027-1.543 0.082-0.068 0.107-0.257 0.107-0.822 0-0.403-0.031-0.815-0.069-0.916-0.083-0.219-0.32-0.244-0.426-0.045zM17.956 13.454c-0.078 0.044-0.162 0.111-0.187 0.148s-0.281 0.184-0.569 0.326l-0.524 0.258-0.199 0.569c-0.11 0.313-0.218 0.8-0.241 1.083-0.041 0.497-0.035 0.521 0.164 0.72 0.205 0.206 0.415 0.274 1.338 0.435 0.607 0.106 1.728 0.096 1.767-0.015 0.075-0.215-0.037-0.267-0.574-0.267-0.823 0-2.058-0.236-2.199-0.42-0.142-0.186-0.103-0.715 0.094-1.297l0.186-0.546 0.437-0.195c0.24-0.107 0.537-0.271 0.659-0.363l0.222-0.168 0.119 0.251c0.187 0.395 0.474 0.284 0.367-0.143-0.099-0.395-0.509-0.574-0.859-0.375zM4.746 13.527c-0.020 0.052 0.007 0.669 0.061 1.373s0.115 1.599 0.138 1.99c0.023 0.391 0.054 0.775 0.069 0.853 0.027 0.137 0.080 0.142 1.568 0.13 1.535-0.012 1.729-0.043 1.645-0.261-0.051-0.133-1.127-0.222-2.112-0.174l-0.694 0.033-0.049-0.718c-0.027-0.395-0.067-0.793-0.089-0.886-0.033-0.139-0.017-0.161 0.094-0.129 0.074 0.021 0.63 0.049 1.235 0.061 1.002 0.021 1.103 0.012 1.125-0.101 0.040-0.204-0.302-0.281-1.417-0.32l-1.040-0.036-0.044-0.364c-0.024-0.2-0.044-0.447-0.044-0.55l-0.001-0.186 1.013-0.088c0.557-0.048 1.204-0.116 1.436-0.151 0.339-0.050 0.446-0.042 0.539 0.042 0.064 0.058 0.194 0.105 0.29 0.105 0.187 0 0.207 0.070 0.427 1.529 0.041 0.274 0.12 0.696 0.176 0.939s0.101 0.563 0.102 0.711c0.001 0.333 0.082 0.469 0.256 0.436 0.168-0.032 0.215-0.49 0.098-0.973-0.044-0.182-0.125-0.629-0.181-0.993s-0.13-0.78-0.166-0.924c-0.036-0.144-0.084-0.366-0.106-0.494l-0.041-0.231h0.668c0.496 0 0.747 0.034 0.976 0.133 0.458 0.198 0.943 0.659 1.042 0.99 0.151 0.503 0.113 0.64-0.314 1.145-0.586 0.692-0.716 0.779-1.208 0.804-0.372 0.019-0.423 0.040-0.443 0.179-0.028 0.195 0.197 0.266 0.691 0.218 0.416-0.040 0.685-0.241 1.294-0.964 0.52-0.619 0.583-0.883 0.359-1.521-0.171-0.489-0.507-0.824-1.147-1.145l-0.46-0.231h-1.157c-0.878 0-1.157-0.021-1.157-0.089-0-0.11-0.074-0.109-1.351 0.018-0.567 0.056-1.181 0.103-1.364 0.105-0.292 0.002-0.336-0.018-0.356-0.158-0.026-0.179-0.302-0.263-0.361-0.109zM21.497 13.6c-0.031 0.049-0.136 0.089-0.234 0.089-0.165 0-0.2 0.071-0.521 1.049-0.315 0.961-0.36 1.052-0.534 1.091-0.418 0.093-0.447 0.111-0.425 0.266 0.017 0.122 0.070 0.154 0.251 0.153 0.229-0.001 0.229 0 0.178 0.284-0.028 0.157-0.051 0.525-0.051 0.818 0 0.521 0.004 0.533 0.178 0.533s0.179-0.016 0.223-0.65c0.025-0.357 0.087-0.763 0.137-0.901 0.105-0.291 0.319-0.374 1.204-0.469 0.567-0.061 0.637-0.033 0.639 0.256 0.001 0.157 0.046 0.288 0.298 0.861 0.094 0.215 0.171 0.3 0.257 0.284 0.16-0.030 0.196-0.358 0.061-0.569-0.102-0.16-0.473-1.564-0.473-1.792 0-0.063-0.056-0.173-0.124-0.244-0.192-0.2-0.729-0.992-0.729-1.076 0-0.105-0.265-0.093-0.334 0.014zM24.346 13.618c-0.031 0.080-0.16 0.107-0.522 0.107-0.542 0-0.74 0.116-0.562 0.329 0.079 0.095 0.186 0.108 0.604 0.073l0.508-0.043 0.044 0.656c0.152 2.247 0.352 3.067 0.648 2.662 0.065-0.089 0.064-0.226-0.003-0.598-0.122-0.675-0.245-1.831-0.244-2.299l0.001-0.394 0.896-0.134c0.891-0.133 1.083-0.222 0.892-0.413-0.060-0.060-0.299-0.053-0.937 0.026-0.702 0.088-0.87 0.090-0.933 0.014-0.104-0.126-0.339-0.117-0.389 0.014zM27.642 13.698c-0.078 0.078-0.056 1.236 0.028 1.556 0.041 0.156 0.102 0.46 0.134 0.676s0.107 0.524 0.167 0.687c0.059 0.163 0.131 0.451 0.159 0.64 0.053 0.357 0.129 0.463 0.291 0.401 0.141-0.054 0.119-0.574-0.046-1.099-0.078-0.248-0.142-0.537-0.142-0.642s-0.038-0.281-0.083-0.391c-0.045-0.11-0.101-0.568-0.124-1.018-0.039-0.753-0.054-0.819-0.187-0.839-0.080-0.011-0.168 0.002-0.196 0.030zM21.696 14.169c0.102 0.127 0.237 0.332 0.301 0.456s0.146 0.235 0.183 0.248c0.037 0.013 0.089 0.144 0.116 0.291l0.049 0.267h-0.282c-0.155 0-0.375 0.029-0.488 0.065s-0.318 0.081-0.455 0.099l-0.249 0.034 0.28-0.846c0.154-0.465 0.298-0.846 0.32-0.846s0.123 0.104 0.225 0.232z"></path>
</symbol>
<symbol id="icon-prev" viewBox="0 0 43 32">
<path d="M28.161 4.187c0.571 0.362 0.776 1.062 0.494 1.684-0.138 0.304-0.239 0.398-1.608 1.503-0.469 0.379-1.333 1.124-1.92 1.656-1.965 1.782-2.799 2.379-4.551 3.258-0.469 0.235-1.196 0.647-1.616 0.914-0.843 0.538-1.456 0.901-2.26 1.339-0.293 0.16-0.725 0.42-0.96 0.579-1.103 0.746-2.565 1.543-3.689 2.011-0.382 0.159-0.789 0.357-0.906 0.44l-0.212 0.151 0.732 0.372c1.029 0.523 2.119 1.195 3.379 2.085 0.595 0.42 1.753 1.237 2.572 1.815s1.852 1.262 2.295 1.52c0.443 0.258 1.222 0.71 1.73 1.004s1.596 0.956 2.418 1.47c1.633 1.022 2.305 1.404 2.825 1.61 0.826 0.325 1.223 0.798 1.224 1.455 0 0.525-0.273 0.959-0.754 1.199-0.204 0.102-0.458 0.185-0.565 0.185-0.422 0-2.023-0.759-3.227-1.529-1.322-0.846-2.708-1.693-3.84-2.346-1.922-1.11-2.267-1.328-3.698-2.343-3.598-2.552-5.030-3.485-5.932-3.861-0.497-0.208-2.487-1.212-2.696-1.361-0.283-0.202-0.521-0.709-0.521-1.11 0-0.519 0.237-0.914 0.736-1.226 0.235-0.147 0.567-0.384 0.738-0.528 0.454-0.381 1.901-1.222 2.541-1.476 0.963-0.382 2.039-0.971 3.464-1.894 0.372-0.241 0.82-0.511 0.996-0.6 0.39-0.197 1.297-0.735 2.204-1.306 0.372-0.234 1.205-0.702 1.852-1.040 1.655-0.864 2.109-1.193 3.872-2.801 0.801-0.731 2.117-1.838 3.061-2.576 0.677-0.529 1.257-0.608 1.822-0.25z"></path>
</symbol>
</defs>
</svg>
